<?xml version="1.0" standalone="no"?><!DOCTYPE svg PUBLIC "-//W3C//DTD SVG 1.1//EN" "http://www.w3.org/Graphics/SVG/1.1/DTD/svg11.dtd"><svg t="1585229298215" class="icon" viewBox="0 0 1204 1024" version="1.1" xmlns="http://www.w3.org/2000/svg" p-id="5490" width="235.15625" height="200" xmlns:xlink="http://www.w3.org/1999/xlink"><defs><style type="text/css"></style></defs><path d="M823.319609 831.269733a378.233149 378.233149 0 0 1-225.133043 70.165863 402.625573 402.625573 0 0 1-31.499353-1.565934c-4.215975-0.421597-8.431949-1.144336-12.708152-1.686389a410.575697 410.575697 0 0 1-24.332196-3.734149c-4.938713-0.963651-9.75697-2.228444-14.514998-3.37278a403.167627 403.167627 0 0 1-23.18786-6.022821c-3.673921-1.144336-7.227385-2.409128-10.841078-3.673921-8.853547-3.01141-17.586637-6.022821-26.078814-9.636513l-5.72168-2.650041a389.495824 389.495824 0 0 1-30.59593-14.936596A388.893542 388.893542 0 0 1 331.255146 787.784966l-1.204564-1.32502a377.149041 377.149041 0 0 1-23.007175-25.596989l-4.517116-5.842136a390.278791 390.278791 0 0 1-84.319492-242.538995h89.197977a6.444418 6.444418 0 0 0 5.420539-10.058111L162.977532 274.881543a6.444418 6.444418 0 0 0-10.841077 0L2.288672 502.423715a6.444418 6.444418 0 0 0 5.420539 10.058111h89.137748c0 107.808493 33.185743 207.666863 89.559346 290.299964 0.66251 1.084108 1.204564 2.3489 1.927303 3.493236 5.842136 8.431949 12.346783 16.261616 18.610516 24.21174 2.3489 3.01141 4.517116 6.143277 6.926244 9.034232 9.214916 11.44336 19.032114 22.043524 29.090225 32.463004l2.830726 3.01141a501.279379 501.279379 0 0 0 113.710857 86.246795c1.084108 0.66251 2.107987 1.325021 3.312552 1.927302 12.045642 6.504647 24.332196 12.407011 36.739207 18.008235 3.192095 1.325021 6.203505 2.890954 9.3956 4.215974 10.660393 4.456887 21.621927 8.431949 32.703918 12.166098 5.179626 1.806846 10.359252 3.613693 15.659334 5.239855 9.636513 2.890954 19.574168 5.360311 29.511822 7.70921 6.625103 1.565933 13.129749 3.252323 19.875309 4.577344 2.830726 0.602282 5.420539 1.445477 8.191036 1.806846 9.335372 1.746618 18.791201 2.650041 28.186802 3.794378 3.433008 0.421597 6.745559 1.02388 10.118339 1.385248 16.863898 1.68639 33.727797 2.770498 50.531466 2.770498a498.267968 498.267968 0 0 0 289.215857-92.871898 62.035055 62.035055 0 0 0 14.936596-85.584284 60.16798 60.16798 0 0 0-84.560405-15.057052M1108.680861 512.481826a513.445477 513.445477 0 0 0-89.137748-289.516998c-0.843195-1.445477-1.385249-2.890954-2.288672-4.215975-6.986472-10.058111-14.575226-19.453711-22.163981-28.849312-0.903423-1.144336-1.68639-2.3489-2.650041-3.493236A500.978238 500.978238 0 0 0 803.624985 42.822256l-6.022821-2.770497a555.424538 555.424538 0 0 0-35.594871-13.250206c-4.336431-1.385249-8.612634-3.01141-13.009293-4.336431a485.43936 485.43936 0 0 0-31.800494-8.311493c-5.902364-1.385249-11.804729-2.890954-17.82755-4.095518-2.951182-0.602282-5.72168-1.445477-8.672862-1.987531-8.010352-1.385249-16.020703-1.987531-24.031055-3.01141-5.540995-0.722739-10.961534-1.626162-16.562757-2.168216a531.634396 531.634396 0 0 0-40.111987-2.047759c-2.409128 0-4.818257-0.421597-7.227385-0.421598L601.499118 0.602282a497.485002 497.485002 0 0 0-288.79426 92.4503c-27.524291 19.453711-34.209622 57.758852-14.996824 85.584284a60.228208 60.228208 0 0 0 84.560405 15.057052 378.112693 378.112693 0 0 1 223.326197-70.165862c11.44336 0.060228 22.645806 0.602282 33.788025 1.686389l10.238795 1.325021c9.094459 1.204564 18.188919 2.469357 27.102694 4.215975 3.975062 0.782967 7.829667 1.806846 11.684273 2.710269 8.793318 1.987531 17.46618 4.155746 26.078814 6.745559l8.07058 2.770498c9.75697 3.252323 19.393483 6.745559 28.849312 10.720621 0.963651 0.361369 1.927303 0.903423 2.830725 1.264792A386.303729 386.303729 0 0 1 899.207152 265.004117l0.66251 0.903423a390.399247 390.399247 0 0 1 87.330903 246.574286h-89.137749a6.444418 6.444418 0 0 0-5.420539 10.05811l149.908011 227.542172a6.444418 6.444418 0 0 0 10.841078 0l149.787554-227.542172a6.444418 6.444418 0 0 0-5.420539-10.05811h-89.137748" fill="#1296db" p-id="5491"></path></svg>